<?xml version="1.0" encoding="utf-8"?>
<!-- Generator: Adobe Illustrator 24.1.0, SVG Export Plug-In . SVG Version: 6.00 Build 0)  -->
<svg version="1.1" xmlns="http://www.w3.org/2000/svg" xmlns:xlink="http://www.w3.org/1999/xlink" x="0px" y="0px"
	 viewBox="0 0 120 120" style="enable-background:new 0 0 120 120;" xml:space="preserve">
<style type="text/css">
	.st0{fill-rule:evenodd;clip-rule:evenodd;fill:#FFFFFF;}
</style>
<path class="st0" d="M78,36.5c-0.4,0-0.7,0.1-1.1,0.3L42.4,58.3c-0.9,0.6-1.2,1.8-0.6,2.8c0.2,0.3,0.4,0.5,0.6,0.6l34.5,21.5
	c0.9,0.6,2.2,0.3,2.8-0.6c0.2-0.3,0.3-0.7,0.3-1.1v-43C80,37.4,79.1,36.5,78,36.5z"/>
<path class="st0" d="M43,46h26c1.7,0,3,1.3,3,3v22c0,1.7-1.3,3-3,3H43c-1.7,0-3-1.3-3-3V49C40,47.3,41.3,46,43,46z"/>
</svg>
